<svg version="1.1" id="Warstwa_1" xmlns="http://www.w3.org/2000/svg" xmlns:xlink="http://www.w3.org/1999/xlink" x="0px" y="0px" style="enable-background:new 0 0 841.89 595.28;" xml:space="preserve" viewBox="237.98 245.42 325.62 124.72">
<style type="text/css">
	.st0{fill:#001B3B;}
</style>
<g>
	<path class="st0" d="M393.32,367.33c0,1.75-1.19,2.79-3.34,2.79c-1.08,0-1.95-0.3-2.65-0.66v-2.28c0.25-0.04,0.72-0.04,0.97,0   l0.15,1.53c0.48,0.18,1.01,0.29,1.53,0.29c1.13,0,2.05-0.45,2.05-1.67c0-2.42-4.74-1.56-4.74-4.93c0-1.56,1.05-2.63,3.02-2.63   c1.08,0,1.8,0.3,2.5,0.66v2.28c-0.26,0.04-0.72,0.04-0.98,0l-0.15-1.56c-0.42-0.15-0.89-0.25-1.38-0.25c-1.19,0-1.74,0.45-1.74,1.5   C388.56,364.69,393.32,363.99,393.32,367.33z"/>
	<path class="st0" d="M399.86,369.15c0.04,0.24,0.04,0.54,0,0.83h-3.52c-0.05-0.29-0.05-0.58,0-0.83l1.12-0.15v-8.1l-1.12-0.15   c-0.05-0.24-0.05-0.54,0-0.83h3.52c0.04,0.29,0.04,0.58,0,0.83l-1.13,0.15v8.1L399.86,369.15z M405.41,369.97h-1.98l-4.25-5.31   l3.45-3.79l-0.91-0.12c-0.05-0.24-0.05-0.54,0-0.83h3.45c0.04,0.29,0.04,0.58,0,0.83l-1.13,0.15l-3.25,3.67l-0.3,0.07v0.03   l0.3,0.08l3.5,4.26l1.12,0.13C405.45,369.39,405.45,369.69,405.41,369.97z"/>
	<path class="st0" d="M417.74,369.97h-3.52c-0.04-0.29-0.04-0.58,0-0.83l1.06-0.13l-0.9-2.34h-4l-0.92,2.33l1.1,0.15   c0.04,0.24,0.04,0.54,0,0.83h-3.52c-0.04-0.29-0.04-0.58,0-0.83l1.09-0.15l3.31-8.14l-0.9-0.11c-0.04-0.24-0.04-0.54,0-0.83h2.55   l3.6,9.09l1.05,0.13C417.78,369.39,417.78,369.69,417.74,369.97z M413.96,365.55l-1.48-3.9l-0.06-0.6h-0.03l-0.06,0.6l-1.52,3.9   H413.96z"/>
	<path class="st0" d="M439.55,360.75l-1.08,0.15l-2.73,9.07h-1.51l-2.12-8.17l-0.06-0.6h-0.03l-0.06,0.6l-2.11,8.17h-1.52   l-2.73-9.07l-1.08-0.15c-0.04-0.24-0.04-0.54,0-0.83h3.53c0.04,0.29,0.04,0.58,0,0.83l-1.1,0.15l2.07,7.35l0.06,0.6h0.03l0.06-0.6   l2.08-8.17h1.61l2.04,8.17l0.06,0.6h0.03l0.06-0.6l2.07-7.37l-1.07-0.13c-0.04-0.24-0.04-0.54,0-0.83h3.5   C439.59,360.21,439.59,360.51,439.55,360.75z"/>
	<path class="st0" d="M451.67,360.75l-1.13,0.15v5.55c0,2.47-1.48,3.67-3.82,3.67s-3.83-1.2-3.83-3.67v-5.55l-1.13-0.15   c-0.04-0.24-0.04-0.54,0-0.83h3.53c0.04,0.29,0.04,0.58,0,0.83l-1.13,0.15v5.55c0,1.65,0.81,2.55,2.55,2.55s2.55-0.9,2.55-2.55   v-5.55l-1.13-0.15c-0.04-0.24-0.04-0.54,0-0.83h3.52C451.71,360.21,451.71,360.51,451.67,360.75z"/>
	<path class="st0" d="M462.03,362.35c-0.25,0.05-0.72,0.05-0.97,0l-0.12-1.3h-2.28V369h0.02l1.13,0.15c0.04,0.24,0.04,0.54,0,0.83   h-3.53c-0.04-0.29-0.04-0.58,0-0.83l1.11-0.15v-7.95h-2.28l-0.12,1.3c-0.25,0.05-0.72,0.05-0.97,0v-2.43h8.02V362.35z"/>
</g>
<g>
	<path class="st0" d="M396.85,276.82v6c-4.87,0-9.27-1.52-12.4-4.26l3.61-5.48C390.15,275.3,393.63,276.74,396.85,276.82z    M392.2,268.04c-5.09-1.83-6.7-4.65-6.7-8.44c0-4.22,2.61-7.57,6.7-9.05V268.04z M397.63,255.73v-6c4.35,0.09,8.35,1.48,11.01,3.44   l-3.22,5.61C403.46,257.25,400.77,255.86,397.63,255.73z M408.94,272.52c0,4.48-2.44,7.92-6.66,9.44v-17.71   C407.29,265.99,408.94,268.6,408.94,272.52z"/>
	<path class="st0" d="M413.34,250.29h6.66v19.14l11.4-19.14h7.53l-20.53,31.97h-5.05V250.29z M428.47,276.61l3.87-6l7.79,11.66   h-7.96L428.47,276.61z"/>
	<path class="st0" d="M450.48,276.48l-2.44,5.79h-7.4l9.53-19.97l5.92,14.18H450.48z M456.14,249.72h0.17l15.44,32.54h-7.35   l-11.09-26.58L456.14,249.72z"/>
	<path class="st0" d="M387.11,300.29h6.66v31.97h-6.66V300.29z M412.56,332.26h-7.66l-5.7-11.18v-5.83h0.09c2.96,0,5-1.61,5-4.61   c0-2.96-2.13-4.61-4.96-4.61h-0.13v-5.74h0.48c6.13,0,11.35,3.74,11.35,10.35c0,4.22-2.09,7.27-5.18,8.96L412.56,332.26z"/>
	<path class="st0" d="M437.48,321.3c0,6.61-4.96,11.4-11.66,11.4c-6.7,0-11.62-4.79-11.62-11.4s4.92-11.53,11.62-11.53   C432.52,309.77,437.48,314.69,437.48,321.3z M420.73,321.3c0,3.39,2.09,5.79,5.09,5.79c3.04,0,5.18-2.39,5.18-5.79   c0-3.48-2.13-5.92-5.18-5.92C422.82,315.38,420.73,317.82,420.73,321.3z"/>
	<path class="st0" d="M447.96,312.21c1.04-1.22,2.96-2.44,6.09-2.44c5.87,0,9.83,4.87,9.83,11.49s-3.96,11.44-9.83,11.44   c-3.13,0-5.31-1.3-6.48-2.87l-0.3,2.44h-5.74V299.2h6.44V312.21z M447.96,318.17v6.18c0.96,1.57,2.35,2.74,4.52,2.74   c2.91,0,4.92-2.22,4.92-5.83c0-3.61-2-5.87-4.92-5.87C450.31,315.38,448.92,316.56,447.96,318.17z"/>
	<path class="st0" d="M490.16,321.3c0,6.61-4.96,11.4-11.66,11.4c-6.7,0-11.62-4.79-11.62-11.4s4.92-11.53,11.62-11.53   C485.2,309.77,490.16,314.69,490.16,321.3z M473.41,321.3c0,3.39,2.09,5.79,5.09,5.79c3.04,0,5.18-2.39,5.18-5.79   c0-3.48-2.13-5.92-5.18-5.92C475.5,315.38,473.41,317.82,473.41,321.3z"/>
	<path class="st0" d="M502.29,310.21h6.31v5.44h-6.31v8.31c0,1.87,1.17,3,2.96,3c1.35,0,2.22-0.39,2.87-0.7l1.61,5.09   c-1.13,0.74-2.78,1.35-5.05,1.35c-5.44,0-8.83-3.09-8.83-8.66v-8.4h-3.96v-5.44h3.96v-7.31h6.44V310.21z"/>
	<path class="st0" d="M519.91,303.25c0,2.18-1.57,3.79-3.74,3.79c-2.22,0-3.78-1.61-3.78-3.79c0-2.17,1.57-3.78,3.78-3.78   C518.34,299.46,519.91,301.07,519.91,303.25z M519.34,332.26h-6.44v-22.06h6.44V332.26z"/>
	<path class="st0" d="M543.79,314.86l-4.48,3.31c-0.91-1.65-2.35-2.83-4.52-2.83c-3.22,0-5,2.61-5,5.92c0,3.26,1.83,5.87,5.05,5.87   c2.18,0,3.65-1.17,4.66-2.83l4.35,3.18c-1.87,3.22-5,5.22-9.14,5.22c-6.66,0-11.4-4.83-11.4-11.44s4.74-11.49,11.4-11.49   C538.83,309.77,541.79,311.69,543.79,314.86z"/>
	<path class="st0" d="M563.45,312.08l-2.35,4.52c-1.39-0.96-3.26-1.87-5.57-1.87c-1.78,0-2.78,0.57-2.78,1.74   c0,1.09,0.78,1.57,3.92,2.31c4.7,1.13,6.92,3.22,6.92,6.53c0,4.44-3.61,7.39-9.61,7.39c-3.35,0-6.53-0.96-8.48-2.52l2.48-4.61   c1.52,1.26,3.57,2.22,6.05,2.22c1.96,0,3.13-0.57,3.13-1.87c0-1.17-0.78-1.74-3.65-2.44c-4.92-1.22-7.18-3-7.18-6.44   c0-4.44,3.44-7.27,9.31-7.27C558.67,309.77,561.58,310.69,563.45,312.08z"/>
</g>
<g>
	<path class="st0" d="M343.07,316.86l-1.88-37.58l-0.01-0.29l-3.01-1.55l-0.35,2.8c-1.07-2.56-2.35-5-3.83-7.3l0.04-0.02   c-0.96-1.71-0.94-2.06-0.46-2.84l-0.02-0.01c0.15-0.29,0.11-0.65-0.15-1.08c-0.71-1.15-2.46-3.16-3.55-4.06   c-0.54-0.45-0.91-0.99-1.35-1.62c-0.43-0.63-0.93-1.33-1.67-2.08c-1.46-1.47-4.44-4.13-4.47-4.16l-0.03-0.03   c-0.45-0.34-2.74-1.98-3.91-1.13c-0.07,0.05-0.13,0.1-0.19,0.16c-0.07,0.02-0.13,0.03-0.21,0.05c-0.85,0.21-2.01,0.51-3.49-0.12   l-0.02,0.04c-1.18-0.54-2.4-1.02-3.63-1.46l5.53-0.33l-1.35-3.11l-37.67-4.31c-1.23-0.86-2.69-1.35-4.22-1.4   c-2.09-0.06-4.09,0.69-5.63,2.12c-1.57,1.47-2.39,3.44-2.47,5.43l-0.39-0.22l-19.45,18.71c-1.42,0.49-2.74,1.27-3.87,2.33   c-3.4,3.19-4.24,8.09-2.46,12.14l6.3,35.9l-2.15,1.24l21.65,23.31l1.37-2.21l35.51,8.6c1.54,0.8,3.25,1.22,4.95,1.22   c2.63,0,5.26-0.96,7.33-2.89c1.14-1.07,1.99-2.34,2.55-3.7l19.94-18.23l-0.2-0.41c0.07,0,0.14,0.01,0.21,0.01   c1.93,0,3.86-0.7,5.37-2.12C344.47,324.07,344.94,319.97,343.07,316.86z M340.21,279.62l1.79,35.85c-1.43-1.48-3.34-2.34-5.4-2.41   c-0.64-0.02-1.28,0.05-1.9,0.18l4.28-34.25L340.21,279.62z M318.75,256.94c0.08-0.09,0.18-0.15,0.25-0.21   c0.06-0.04,0.14-0.06,0.24-0.06c0.54,0,1.63,0.55,2.46,1.17c0.24,0.21,3.03,2.71,4.41,4.1c0.69,0.69,1.13,1.33,1.56,1.95   c0.46,0.66,0.89,1.28,1.53,1.81c0.98,0.82,2.7,2.78,3.33,3.82c0.01,0.01,0.01,0.02,0.02,0.03c-0.33,0-0.91-0.1-1.25-0.16   l-0.24-0.04c-1.72-0.3-4.31-2.13-5.39-3.5c-0.51-0.65-1.34-1.27-2.31-1.98c-1.33-0.98-2.83-2.09-3.77-3.52   c-1.4-2.12-1.23-2.94-0.89-3.34c0.02,0,0.04-0.01,0.05-0.01L318.75,256.94z M314.34,257.05c0.01-0.01,0.02-0.02,0.02-0.04   c0.72,0.27,1.38,0.37,1.97,0.37c0.44,0,0.83-0.05,1.18-0.12c-0.23,1.14,0.49,2.48,1.25,3.63c1.04,1.58,2.62,2.75,4.01,3.78   c0.91,0.67,1.69,1.25,2.12,1.79c1.21,1.55,3.98,3.52,6.01,3.87l0.23,0.04c0.43,0.07,0.82,0.13,1.17,0.16   c-0.16,0.75,0.08,1.46,0.6,2.43l-0.03,0.08c1.91,2.88,3.48,6.01,4.69,9.3l-3.9,31.21c-0.98,0.36-1.9,0.91-2.69,1.65   c-1.42,1.33-2.22,3.06-2.42,4.85l-20.49,12.65c-2.71-0.39-5.53,0.26-7.85,1.95l-24.54-6.03l1.07-1.73l-14.03-15.11l-1.48,0.85   l-4.31-24.15c1.53-1.83,2.41-4.09,2.49-6.51c0.01-0.41,0-0.81-0.03-1.21l13.93-19.63c1.8-0.09,3.58-0.78,4.99-2.1   c0.79-0.74,1.4-1.61,1.82-2.57l28.12-1.69C310.33,255.37,312.37,256.14,314.34,257.05z M314.92,253.34l-34.45,2.07   c0.17-0.61,0.28-1.23,0.3-1.88c0.07-2.06-0.67-4.03-2.05-5.54l35.66,4.08L314.92,253.34z M268.22,248.28   c1.28-1.2,2.94-1.85,4.68-1.85c0.07,0,0.15,0,0.22,0c1.83,0.06,3.53,0.83,4.78,2.16c1.25,1.34,1.91,3.08,1.85,4.91   s-0.83,3.53-2.16,4.78c-2.76,2.58-7.1,2.44-9.69-0.31C265.33,255.22,265.47,250.87,268.22,248.28z M264.83,254l0.29,0.16   c0.18,1.63,0.86,3.21,2.06,4.49c1.34,1.43,3.09,2.24,4.9,2.43l-12.94,18.24c-0.41-1.87-1.3-3.61-2.64-5.04   c-1.96-2.09-4.61-3.29-7.47-3.38c-0.64-0.02-1.26,0.02-1.88,0.11L264.83,254z M242.04,274.53c1.89-1.77,4.38-2.68,6.96-2.62   c2.59,0.08,5,1.17,6.77,3.06c1.77,1.89,2.71,4.36,2.62,6.96s-1.17,5-3.06,6.77c-3.91,3.66-10.07,3.46-13.73-0.44   C237.94,284.35,238.14,278.19,242.04,274.53z M240.33,288.3c0.18,0.22,0.35,0.44,0.55,0.65c2.11,2.25,4.96,3.38,7.82,3.38   c2.63,0,5.26-0.96,7.33-2.89c0.01-0.01,0.03-0.03,0.04-0.04l4.25,23.77l-14.19,8.15L240.33,288.3z M264.53,344.74l-19.9-21.42   l17.88-10.27l12.97,13.97L264.53,344.74z M266.61,343.27l8.5-13.77l24.12,5.92c-0.01,0.01-0.03,0.02-0.05,0.04   c-2.09,1.96-3.29,4.61-3.38,7.47c-0.09,2.86,0.94,5.58,2.89,7.67c0.2,0.21,0.4,0.4,0.61,0.59L266.61,343.27z M313.17,350.36   c-3.91,3.66-10.07,3.47-13.73-0.44c-1.77-1.89-2.71-4.36-2.62-6.96s1.17-5,3.06-6.77c1.87-1.75,4.26-2.62,6.64-2.62   c2.59,0,5.18,1.03,7.09,3.06C317.27,340.54,317.08,346.7,313.17,350.36z M335.11,328.93l-18.12,16.57c0.7-3.31-0.17-6.9-2.66-9.55   c-1.37-1.46-3.07-2.44-4.87-2.96l19.04-11.75c0.07,1.82,0.77,3.62,2.11,5.05c1.2,1.28,2.74,2.06,4.35,2.35L335.11,328.93z    M341.04,325.92c-2.76,2.59-7.11,2.44-9.69-0.31c-2.58-2.76-2.45-7.1,0.31-9.69c1.28-1.2,2.94-1.85,4.68-1.85c0.07,0,0.15,0,0.22,0   c1.83,0.06,3.53,0.83,4.78,2.16C343.93,318.98,343.79,323.33,341.04,325.92z"/>
	<path class="st0" d="M306.74,336.68c-1.76-0.07-3.44,0.58-4.73,1.78c-2.66,2.49-2.79,6.68-0.3,9.33c1.3,1.38,3.06,2.08,4.82,2.08   c1.62,0,3.24-0.59,4.52-1.78c1.29-1.21,2.03-2.84,2.08-4.6c0.06-1.76-0.58-3.44-1.78-4.73   C310.13,337.47,308.5,336.73,306.74,336.68z M310.36,347.37c-2.25,2.11-5.81,2-7.92-0.25c-2.11-2.25-2-5.81,0.25-7.92   c1.05-0.98,2.4-1.52,3.83-1.52c0.06,0,0.12,0,0.18,0c1.5,0.05,2.88,0.68,3.91,1.77c1.02,1.09,1.56,2.52,1.51,4.01   C312.08,344.95,311.45,346.34,310.36,347.37z"/>
	<path class="st0" d="M340.02,317.48c-0.92-0.98-2.17-1.54-3.51-1.59c-1.36-0.05-2.62,0.44-3.6,1.36c-0.98,0.92-1.54,2.17-1.59,3.51   s0.44,2.62,1.36,3.6c0.99,1.05,2.33,1.59,3.67,1.59c1.23,0,2.47-0.45,3.44-1.36v0c0.98-0.92,1.54-2.17,1.59-3.51   S340.93,318.46,340.02,317.48z M339.1,323.86c-1.62,1.52-4.18,1.44-5.7-0.18c-0.74-0.79-1.12-1.81-1.09-2.89   c0.04-1.08,0.49-2.07,1.27-2.81c0.75-0.71,1.73-1.09,2.75-1.09c0.04,0,0.09,0,0.13,0c1.08,0.04,2.07,0.49,2.81,1.27   C340.81,319.78,340.72,322.34,339.1,323.86z"/>
	<path class="st0" d="M248.48,288.21c0.07,0,0.14,0,0.22,0c1.68,0,3.28-0.63,4.51-1.79c1.29-1.21,2.03-2.84,2.08-4.6   c0.06-1.76-0.58-3.44-1.78-4.73c-1.21-1.29-2.84-2.03-4.6-2.08c-1.76-0.08-3.44,0.58-4.73,1.78c-1.29,1.21-2.03,2.84-2.08,4.6   s0.58,3.44,1.78,4.73C245.08,287.42,246.71,288.16,248.48,288.21z M244.85,277.53c1.05-0.98,2.4-1.52,3.83-1.52   c0.06,0,0.12,0,0.18,0c1.5,0.05,2.88,0.68,3.91,1.77c1.02,1.09,1.56,2.52,1.51,4.01s-0.68,2.88-1.77,3.91s-2.53,1.55-4.01,1.51   c-1.5-0.05-2.88-0.67-3.91-1.77c-1.02-1.09-1.56-2.52-1.51-4.01C243.13,279.94,243.76,278.55,244.85,277.53z"/>
	<path class="st0" d="M272.91,258.31c1.23,0,2.47-0.45,3.44-1.36c0.98-0.92,1.54-2.17,1.59-3.51s-0.44-2.62-1.36-3.6   c-0.92-0.98-2.17-1.54-3.51-1.59c-1.36-0.05-2.62,0.44-3.6,1.36c-0.98,0.92-1.54,2.17-1.59,3.51s0.44,2.62,1.36,3.6   C270.23,257.78,271.57,258.31,272.91,258.31z M270.15,250.34c0.75-0.71,1.73-1.09,2.75-1.09c0.04,0,0.09,0,0.13,0   c1.08,0.04,2.07,0.49,2.81,1.27c1.52,1.62,1.44,4.18-0.18,5.7c-1.62,1.52-4.18,1.44-5.7-0.18   C268.45,254.42,268.53,251.86,270.15,250.34z"/>
	<polygon class="st0" points="291.38,304.15 291.38,304.14 292.31,305.56 296.77,305.56 292.41,299.03 292.39,299.05 290.53,296.31    296.09,287.64 291.87,287.64 285.49,298.37 285.49,287.64 281.76,287.64 281.76,305.56 284.58,305.56 288.28,299.81  "/>
	<path class="st0" d="M297.17,305.72h4.13h0.02l0.19-0.45l1.28-2.78h6.35l1.35,3.23h4.12l-8.65-18.23h-0.1l-0.84,1.77l-7.86,16.47   H297.17z M306.02,295.43h0.16l1.79,4.28h-3.91L306.02,295.43z"/>
	<path class="st0" d="M277.19,295.69c-1.2-0.48-2.45-0.76-3.71-0.99c-0.74-0.13-1.47-0.29-2.17-0.57c-0.29-0.12-0.57-0.26-0.78-0.51   c-0.39-0.49-0.42-1.18-0.07-1.79c0.1-0.17,0.23-0.35,0.39-0.45c0.29-0.17,0.6-0.31,0.92-0.39c0.83-0.21,1.66-0.15,2.5-0.03   c1.16,0.16,2.21,0.6,3.19,1.24c0.3,0.2,0.3,0.2,0.51-0.11c0.47-0.68,0.95-1.35,1.42-2.03c0.16-0.23,0.3-0.46,0.45-0.68   c-0.04-0.06-0.06-0.09-0.08-0.11c-0.75-0.5-1.55-0.89-2.4-1.16c-1.69-0.53-3.42-0.73-5.19-0.59c-1.3,0.1-2.53,0.41-3.63,1.14   c-1.28,0.85-2.12,1.97-2.35,3.54c-0.28,1.98,0.58,3.82,2.38,4.8c0.94,0.51,1.94,0.86,2.97,1.1c0.85,0.2,1.71,0.35,2.55,0.55   c0.59,0.14,1.17,0.29,1.68,0.63c0.76,0.5,0.92,1.52,0.35,2.21c-0.33,0.41-0.78,0.63-1.27,0.76c-0.68,0.17-1.37,0.21-2.06,0.16   c-1.77-0.13-3.38-0.69-4.76-1.83c-0.08-0.07-0.17-0.13-0.27-0.2c-0.74,1.03-1.46,2.03-2.19,3.04c0.05,0.06,0.08,0.11,0.12,0.14   c1.21,0.87,2.52,1.52,3.98,1.85c1.51,0.35,3.04,0.5,4.59,0.35c1.13-0.11,2.23-0.33,3.25-0.85c1.03-0.52,1.87-1.25,2.44-2.27   c0.42-0.75,0.59-1.57,0.6-2.41c0.02-1.15-0.28-2.21-1.08-3.08C278.83,296.46,278.04,296.03,277.19,295.69z"/>
	<path class="st0" d="M315.68,287.49c-0.12,0-0.25,0.01-0.4,0.02c-0.09,6.06-0.09,12.1,0,18.13c0.94,0.11,3.53,0.1,4.14-0.02   c0.02-2.09,0.05-4.18,0.07-6.29c0.13-0.01,0.22-0.03,0.31-0.03c0.67,0,1.33,0.02,2-0.01c0.31-0.01,0.47,0.12,0.63,0.36   c1.26,1.93,2.53,3.86,3.8,5.79c0.09,0.14,0.17,0.22,0.35,0.22c1.51,0.06,3.01,0.06,4.52-0.01c0.04,0,0.08-0.02,0.18-0.03   c-1.55-2.34-3.08-4.65-4.63-6.99c0.14-0.07,0.24-0.12,0.34-0.17c0.94-0.48,1.78-1.09,2.39-1.98c0.88-1.29,1.09-2.7,0.84-4.21   c-0.2-1.22-0.8-2.22-1.73-3.01c-1.36-1.15-2.95-1.73-4.72-1.76C321.06,287.47,318.37,287.49,315.68,287.49z M323.5,290.83   c0.6,0.06,1.17,0.25,1.65,0.63c0.37,0.29,0.63,0.66,0.76,1.12c0.13,0.5,0.15,0.99,0.03,1.5c-0.15,0.62-0.5,1.08-1.04,1.39   c-0.44,0.26-0.92,0.42-1.43,0.46c-1.22,0.09-2.43,0.11-3.65,0.04c-0.09-0.01-0.18-0.02-0.3-0.04c-0.08-1.73-0.08-3.41,0-5.1   c0.05-0.02,0.09-0.04,0.14-0.04C320.92,290.74,322.21,290.7,323.5,290.83z"/>
	<path class="st0" d="M304.11,325.61c-0.73-1.12-2.5-2.52-6.66-3.58c-3.77-0.96-5.32-0.51-7.27,0.08c-0.5,0.15-1.04,0.31-1.66,0.46   c-0.5,0.12-0.9,0.3-1.25,0.51c-0.07-0.67-0.36-1.41-1.54-1.79l-0.31,0.95c0.86,0.28,0.86,0.72,0.87,1.44c0,0.18,0,0.35,0.02,0.52   c-0.02,0.04-0.05,0.08-0.06,0.13c-0.32,1.2,0.54,2.43,1.11,2.97c0.98,0.94,6.28,2.8,8.87,3.27c0.39,0.07,0.8,0.1,1.22,0.1   c2.4,0,5.01-1.07,6.27-1.87c0.58-0.37,0.89-1.03,0.86-1.75c0.15-0.56,0.41-1.18,0.71-1.2l-0.07-1   C304.73,324.89,304.37,325.2,304.11,325.61z M303.19,327.96c-1.14,0.72-4.31,2.07-6.78,1.63c-2.58-0.46-7.58-2.27-8.36-3.01   c-0.53-0.5-1-1.37-0.83-1.99c0.13-0.48,0.64-0.83,1.53-1.04c0.64-0.15,1.2-0.32,1.72-0.47c1.11-0.33,2.01-0.6,3.23-0.6   c0.91,0,2.01,0.15,3.51,0.53c5.57,1.43,6.3,3.36,6.39,3.92c-0.07,0.29-0.1,0.54-0.11,0.71C303.4,327.77,303.3,327.89,303.19,327.96   z"/>
	<path class="st0" d="M279.83,268.16c-1.08,1.5-1.85,4.43-1.89,4.55l-0.02,0.09l0.01,0.09c0.03,0.23,0.08,0.44,0.15,0.65   c0.03,0.3,0.09,0.68,0.15,1.11c0.13,0.85,0.3,1.9,0.27,2.74l1,0.04c0.03-0.73-0.07-1.55-0.18-2.3c1.27,0.89,3.23,1.22,5.18,1.22   c0.92,0,1.85-0.07,2.68-0.19c3.58-0.51,9.11-3.87,9.2-7.3c0.19,0.13,0.38,0.25,0.57,0.38c0.36,0.23,0.74,0.47,1.1,0.76l0.31-0.39   c0,0,0,0,0,0l0,0l0.31-0.39c-0.41-0.32-0.8-0.57-1.18-0.82c-0.6-0.38-1.1-0.71-1.44-1.16c-0.79-1.66-2.88-2.31-4.93-2.93   c-0.63-0.19-1.28-0.39-1.91-0.62C285.76,262.44,281.4,265.98,279.83,268.16z M288.87,264.63c0.65,0.24,1.31,0.44,1.96,0.64   c2.05,0.63,3.51,1.14,4.16,2.14c0.04,0.07,0.08,0.14,0.12,0.21c0.17,0.34,0.27,0.72,0.27,1.19c-0.02,2.81-5.14,5.91-8.34,6.37   c-2.36,0.34-5.67,0.3-7.25-0.93c-0.48-0.37-0.76-0.82-0.84-1.37c0.14-0.5,0.83-2.91,1.71-4.13   C282.01,266.84,285.96,263.57,288.87,264.63z"/>
	<path class="st0" d="M267.3,284.57c0.54,0,1.16-0.24,1.74-0.71c1.02-0.83,1.37-1.96,0.82-2.64v0c-0.55-0.68-1.74-0.56-2.75,0.27   c-0.44,0.36-0.78,0.8-0.95,1.25c-0.21,0.53-0.16,1.04,0.13,1.39C266.52,284.43,266.88,284.57,267.3,284.57z M267.09,283.1   c0.11-0.28,0.35-0.59,0.65-0.83c0.43-0.35,0.86-0.48,1.12-0.48c0.11,0,0.19,0.03,0.23,0.07c0.11,0.14-0.06,0.73-0.68,1.23   c-0.62,0.5-1.23,0.55-1.35,0.41C267.02,283.45,267.01,283.31,267.09,283.1z"/>
	<path class="st0" d="M313.66,269.85c0.43,0.17,0.85,0.25,1.22,0.25c0.71,0,1.27-0.29,1.48-0.81c0.17-0.42,0.06-0.92-0.29-1.37   c-0.3-0.37-0.75-0.7-1.28-0.91c-1.22-0.49-2.38-0.25-2.71,0.56c-0.17,0.42-0.06,0.92,0.29,1.37   C312.67,269.32,313.13,269.64,313.66,269.85z M313.58,267.77c0.24,0,0.53,0.05,0.85,0.18c0.36,0.15,0.68,0.37,0.87,0.6   c0.14,0.17,0.17,0.31,0.15,0.37v0c-0.07,0.17-0.67,0.3-1.41,0c-0.36-0.15-0.68-0.37-0.87-0.6c-0.14-0.17-0.17-0.31-0.15-0.38   C313.05,267.85,313.26,267.77,313.58,267.77z"/>
	<path class="st0" d="M295.2,260.33c0.27,0,0.54-0.01,0.81-0.04c1.73-0.15,3.44-0.78,3.34-1.83v0c-0.09-1.05-1.88-1.36-3.61-1.21   c-1.73,0.15-3.44,0.78-3.34,1.83C292.48,259.97,293.76,260.33,295.2,260.33z M295.83,258.25c0.26-0.02,0.49-0.03,0.71-0.03   c0.99,0,1.6,0.2,1.79,0.34c-0.19,0.21-0.99,0.62-2.41,0.74c-1.55,0.14-2.44-0.19-2.54-0.26   C293.47,258.87,294.28,258.39,295.83,258.25z"/>
	<path class="st0" d="M314.74,280.77c1.41,0.98,2.89,1.54,4,1.54c0.17,0,0.34-0.01,0.49-0.04c0.46-0.08,0.83-0.3,1.05-0.62   c0.42-0.6,0.31-1.47-0.3-2.44c-0.53-0.85-1.41-1.71-2.46-2.45c-1.05-0.73-2.17-1.25-3.15-1.45c-1.12-0.24-1.97-0.03-2.39,0.57   c-0.42,0.6-0.31,1.47,0.3,2.44C312.81,279.17,313.69,280.04,314.74,280.77z M312.8,276.45c0.11-0.15,0.36-0.23,0.71-0.23   c0.19,0,0.41,0.02,0.65,0.07c0.85,0.18,1.84,0.63,2.78,1.29c0.95,0.66,1.72,1.42,2.18,2.16c0.37,0.58,0.49,1.09,0.33,1.33   c-0.07,0.1-0.21,0.17-0.41,0.21c-0.72,0.13-2.15-0.23-3.74-1.34c-0.95-0.66-1.72-1.42-2.18-2.16   C312.76,277.2,312.63,276.69,312.8,276.45z"/>
	<path class="st0" d="M319.16,313.07c-0.76-0.05-1.65,0.13-2.5,0.52c-0.85,0.39-1.57,0.94-2.03,1.55c-0.53,0.7-0.67,1.41-0.4,2   c0.27,0.59,0.9,0.95,1.78,1.01c0.08,0,0.17,0.01,0.26,0.01c0.7,0,1.49-0.18,2.24-0.53c1.88-0.86,2.95-2.42,2.43-3.55   C320.66,313.49,320.03,313.13,319.16,313.07z M318.09,316.72c-0.69,0.32-1.43,0.47-2.02,0.43c-0.48-0.03-0.82-0.19-0.93-0.43   c-0.11-0.24-0.01-0.6,0.29-0.99c0.36-0.47,0.96-0.93,1.65-1.24c0.62-0.28,1.27-0.44,1.83-0.44c0.06,0,0.13,0,0.19,0.01   c0.48,0.03,0.82,0.19,0.93,0.43v0C320.26,315.02,319.49,316.09,318.09,316.72z"/>
	<path class="st0" d="M277.88,313.41c-1.29-1.07-2.74-1.3-3.37-0.53c-0.63,0.76-0.13,2.14,1.16,3.21c0.76,0.63,1.6,0.98,2.3,0.98   c0.06,0,0.12,0,0.18-0.01c0.37-0.04,0.68-0.19,0.89-0.44c0.34-0.41,0.36-0.99,0.08-1.65C278.88,314.43,278.44,313.88,277.88,313.41   z M278.27,315.98L278.27,315.98c-0.05,0.06-0.16,0.08-0.22,0.08c-0.38,0.04-1.05-0.18-1.74-0.75c-0.93-0.77-1.19-1.6-1.03-1.8   c0.05-0.06,0.15-0.09,0.29-0.09c0.37,0,1,0.21,1.67,0.76c0.44,0.36,0.79,0.79,0.96,1.19C278.34,315.69,278.33,315.9,278.27,315.98z   "/>
</g>
</svg>